<svg width="22" height="30" viewBox="0 0 22 30" fill="none" xmlns="http://www.w3.org/2000/svg">
<path d="M0 0.5H1.70647V29.4999H0V0.5Z" fill="#FD4B1E"/>
<path d="M2.43781 0.5H4.14428V25.8445H2.43781V0.5Z" fill="#FD4B1E"/>
<path d="M4.87562 0.5H6.58209V29.4999H4.87562V0.5Z" fill="#FD4B1E"/>
<path d="M11.4577 0.5H9.75124V25.3733L11.4577 28.9104V0.5Z" fill="#FD4B1E"/>
<path d="M9.0199 2.93697H7.31343V19.815L9.0199 23.3521V2.93697Z" fill="#FD4B1E"/>
<path d="M19.5025 26.5703V29.4999H21.1945L19.5025 26.5703Z" fill="#FD4B1E"/>
<path d="M21.209 26.1132V26.0882H21.1945L21.209 26.1132Z" fill="#FD4B1E"/>
<path d="M17.0647 22.3493V29.5H18.7711V25.304L17.0647 22.3493Z" fill="#FD4B1E"/>
<path d="M19.5025 14.7956C20.5761 13.3117 21.209 11.4882 21.209 9.51688C21.209 7.54558 20.5761 5.72202 19.5025 4.23815V14.7956Z" fill="#FD4B1E"/>
<path d="M16.3333 17.5276V1.50598C15.794 1.2266 15.2229 1.00005 14.6269 0.833179V29.5H16.3333V21.0831L14.6626 18.1903C15.2458 18.0244 15.8048 17.8014 16.3333 17.5276Z" fill="#FD4B1E"/>
<path d="M12.1891 5.37394H13.8955V29.4999H12.1891V5.37394Z" fill="#FD4B1E"/>
<path d="M18.7711 3.35172V15.682C18.264 16.2229 17.6909 16.7012 17.0647 17.1042V1.92958C17.6909 2.33254 18.264 2.81086 18.7711 3.35172Z" fill="#FD4B1E"/>
</svg>
