<svg width="179" height="272" viewBox="0 0 179 272" fill="none" xmlns="http://www.w3.org/2000/svg">
<path d="M0 0H14.3532V271.999H0V0Z" fill="#FD4B1E"/>
<path d="M20.5046 0H34.8577V237.714H20.5046V0Z" fill="#FD4B1E"/>
<path d="M41.0091 0H55.3623V271.999H41.0091V0Z" fill="#FD4B1E"/>
<path d="M96.3714 0H82.0182V233.295L96.3714 266.47V0Z" fill="#FD4B1E"/>
<path d="M75.8669 22.8571H61.5137V181.162L75.8669 214.337V22.8571Z" fill="#FD4B1E"/>
<path d="M164.036 244.521V271.999H178.268L164.036 244.521Z" fill="#FD4B1E"/>
<path d="M178.39 240.234V240H178.268L178.39 240.234Z" fill="#FD4B1E"/>
<path d="M143.532 204.932V272H157.885V232.644L143.532 204.932Z" fill="#FD4B1E"/>
<path d="M164.036 134.083C173.067 120.165 178.39 103.062 178.39 84.5721C178.39 66.0826 173.067 48.979 164.036 35.0613V134.083Z" fill="#FD4B1E"/>
<path d="M137.381 159.707V9.43541C132.844 6.81504 128.041 4.69015 123.027 3.12499V272H137.381V193.055L123.328 165.923C128.233 164.367 132.935 162.275 137.381 159.707Z" fill="#FD4B1E"/>
<path d="M102.523 45.7142H116.876V271.999H102.523V45.7142Z" fill="#FD4B1E"/>
<path d="M157.885 26.7472V142.397C153.619 147.47 148.799 151.956 143.532 155.736V13.4085C148.799 17.188 153.619 21.6743 157.885 26.7472Z" fill="#FD4B1E"/>
</svg>
