<?xml version="1.0" standalone="no"?>
<!DOCTYPE svg PUBLIC "-//W3C//DTD SVG 20010904//EN"
 "http://www.w3.org/TR/2001/REC-SVG-20010904/DTD/svg10.dtd">
<svg version="1.0" xmlns="http://www.w3.org/2000/svg"
 width="960.000000pt" height="960.000000pt" viewBox="0 0 960.000000 960.000000"
 preserveAspectRatio="xMidYMid meet">
<metadata>
Created by potrace 1.14, written by Peter Selinger 2001-2017
</metadata>
<g transform="translate(0.000000,960.000000) scale(0.100000,-0.100000)"
fill="#000000" stroke="none">
<path d="M1286 9442 c-10 -10 -7 -9270 3 -9276 8 -6 26 -7 74 -6 9 0 28 0 42
0 14 0 31 0 38 1 12 0 197 0 230 -1 9 0 29 0 45 0 15 0 45 1 67 3 l40 2 0
4634 0 4635 -27 7 c-16 4 -30 3 -34 -2 -3 -5 -10 -7 -15 -3 -6 3 -54 6 -107 5
-53 -1 -105 -1 -114 -1 -42 0 -56 0 -101 0 -27 0 -53 2 -58 5 -5 4 -9 2 -9 -3
0 -6 -14 -7 -34 -2 -19 4 -37 5 -40 2z"/>
<path d="M2094 9440 c-36 -6 -34 14 -33 -310 0 -124 0 -232 0 -240 0 -8 0
-116 0 -240 0 -124 1 -232 1 -240 -1 -8 -1 -224 -1 -480 1 -256 0 -472 0 -480
0 -8 0 -116 0 -240 0 -124 0 -232 0 -240 0 -8 0 -116 0 -240 0 -124 1 -232 1
-240 -1 -8 -1 -224 -1 -480 1 -256 0 -472 0 -480 0 -8 0 -116 0 -240 0 -124 0
-232 0 -240 0 -8 0 -116 0 -240 0 -124 0 -232 0 -240 0 -8 0 -116 0 -240 0
-124 1 -232 0 -240 0 -8 0 -152 0 -320 0 -168 0 -312 0 -320 0 -8 0 -152 0
-320 0 -168 0 -312 0 -320 0 -8 0 -152 0 -320 0 -168 0 -312 0 -320 0 -8 0
-116 0 -240 0 -124 1 -229 0 -235 0 -26 -2 -285 -1 -322 l0 -43 273 0 274 0
-1 4053 -1 4052 -40 5 c-22 3 -49 3 -61 -1 -11 -4 -26 -4 -34 1 -7 4 -24 5
-38 1 -14 -4 -45 -4 -69 -1 -24 4 -43 4 -43 -1 0 -4 -15 -4 -32 0 -18 4 -48 4
-65 0 -18 -3 -33 -4 -33 0 0 7 -53 8 -96 1z"/>
<path d="M2927 9443 c-3 -3 -24 -5 -47 -5 l-40 1 0 -187 c0 -158 0 -8278 0
-8883 l0 -207 40 -4 c22 -2 47 -1 57 3 10 4 25 3 33 -1 8 -4 26 -4 40 0 14 3
44 3 68 0 23 -4 42 -4 42 1 0 4 15 4 33 0 17 -4 47 -4 65 0 17 3 32 4 32 0 0
-7 121 -3 129 5 3 3 6 2091 7 4639 l0 4633 -53 4 c-29 2 -53 0 -53 -3 0 -4
-15 -4 -32 0 -18 4 -48 4 -65 0 -18 -3 -33 -4 -33 0 0 7 -170 5 -177 -3 -3 -3
-13 -1 -23 4 -10 5 -20 7 -23 3z"/>
<path d="M4428 9440 c-18 -5 -23 -13 -24 -41 0 -19 -4 -41 -8 -47 -4 -7 -2
-12 4 -12 6 0 9 -4 5 -9 -3 -6 -5 -50 -5 -98 2 -130 2 -140 0 -242 -1 -51 1
-96 4 -99 3 -3 1 -11 -5 -19 -9 -10 -8 -13 0 -13 7 0 10 -4 6 -9 -3 -6 -5 -50
-5 -98 2 -130 2 -140 0 -238 -1 -50 2 -98 6 -108 3 -9 2 -17 -3 -17 -5 0 -7
-21 -4 -47 3 -27 4 -73 1 -103 -3 -30 -3 -79 1 -107 3 -30 1 -57 -5 -63 -7 -7
-6 -10 3 -10 7 0 10 -4 6 -9 -3 -6 -5 -50 -5 -98 2 -130 2 -140 0 -242 -1 -51
1 -96 4 -99 3 -3 1 -11 -5 -19 -9 -10 -8 -13 0 -13 7 0 10 -4 6 -9 -3 -6 -5
-50 -5 -98 2 -130 2 -140 0 -238 -1 -50 2 -98 6 -108 3 -9 2 -17 -3 -17 -5 0
-7 -21 -4 -47 3 -27 4 -73 1 -103 -3 -30 -3 -79 1 -107 3 -30 1 -57 -5 -63 -7
-7 -6 -10 3 -10 7 0 10 -4 6 -9 -3 -6 -5 -50 -5 -98 2 -130 2 -140 0 -242 -1
-51 1 -96 4 -99 3 -3 1 -11 -5 -19 -9 -10 -8 -13 0 -13 7 0 10 -4 6 -9 -3 -6
-5 -50 -5 -98 2 -130 2 -140 0 -238 -1 -50 2 -98 6 -108 3 -9 2 -17 -3 -17 -5
0 -7 -21 -4 -47 3 -27 4 -73 1 -103 -3 -30 -3 -79 1 -107 3 -30 1 -57 -5 -63
-7 -7 -6 -10 3 -10 7 0 10 -4 6 -9 -3 -6 -5 -50 -5 -98 2 -130 2 -140 0 -242
-1 -51 1 -96 4 -99 3 -3 1 -11 -5 -19 -9 -10 -8 -13 0 -13 7 0 10 -4 6 -9 -3
-6 -5 -50 -5 -98 2 -130 2 -140 0 -238 -1 -50 2 -98 6 -108 3 -10 1 -17 -6
-17 -6 0 -9 -4 -6 -9 3 -5 6 -60 6 -123 -1 -62 -1 -122 -1 -133 0 -11 0 -85 0
-165 0 -80 0 -149 0 -155 0 -5 0 -44 1 -85 1 -41 1 -117 0 -169 -1 -51 1 -96
4 -99 3 -3 1 -11 -5 -19 -9 -10 -8 -13 0 -13 7 0 10 -4 6 -9 -3 -6 -5 -50 -5
-98 2 -130 2 -140 0 -242 -1 -51 1 -96 4 -99 3 -3 1 -11 -5 -19 -9 -10 -8 -13
0 -13 7 0 10 -4 6 -9 -3 -6 -5 -50 -5 -98 2 -130 2 -140 0 -238 -1 -50 2 -98
6 -108 3 -10 1 -17 -6 -17 -6 0 -9 -4 -6 -9 3 -5 6 -60 6 -123 -1 -62 -1 -122
-1 -133 0 -11 0 -85 0 -165 0 -80 0 -161 1 -180 1 -19 2 -39 2 -45 -1 -10 -1
-168 -1 -220 0 -16 0 -72 -1 -123 -1 -50 1 -96 5 -101 3 -5 1 -12 -4 -16 -13
-7 -8 -19 72 -185 36 -74 92 -191 125 -260 33 -69 104 -215 158 -325 54 -110
98 -202 98 -205 1 -7 88 -180 90 -180 1 0 2 2043 2 4540 0 3179 -3 4540 -10
4541 -6 0 -31 0 -56 -1 -25 0 -56 -1 -70 -1 -14 -1 -36 -1 -50 0 -14 0 -36 1
-50 1 -14 1 -32 1 -40 1 -26 -1 -73 -1 -147 2 -40 1 -82 0 -95 -3z"/>
<path d="M5963 9310 c3 -11 1 -23 -4 -26 -5 -3 -7 -9 -4 -14 4 -7 6 -134 4
-265 0 -11 1 -46 1 -79 1 -32 -1 -60 -4 -63 -3 -3 -1 -16 4 -29 6 -14 6 -26 0
-29 -5 -3 -7 -12 -4 -19 8 -21 10 -316 2 -316 -4 0 -5 -6 -2 -13 8 -23 10
-307 1 -307 -5 0 -6 -4 -2 -9 4 -8 6 -62 4 -141 0 -8 0 -69 0 -135 0 -66 1
-129 0 -140 0 -11 1 -46 1 -79 1 -32 -1 -60 -4 -63 -3 -3 -1 -16 4 -29 6 -14
6 -26 0 -29 -5 -3 -7 -12 -4 -19 8 -21 10 -316 2 -316 -4 0 -5 -6 -2 -13 8
-23 10 -307 1 -307 -5 0 -6 -4 -2 -9 4 -8 6 -62 4 -141 0 -8 0 -69 0 -135 0
-66 1 -129 0 -140 0 -11 1 -46 1 -79 1 -32 -1 -60 -4 -63 -3 -3 -1 -16 4 -29
6 -14 6 -26 0 -29 -5 -3 -7 -12 -4 -19 8 -21 10 -316 2 -316 -4 0 -5 -6 -2
-13 8 -23 10 -307 1 -307 -5 0 -6 -4 -2 -9 4 -8 6 -62 4 -141 0 -8 0 -69 0
-135 0 -66 1 -129 0 -140 0 -11 1 -46 1 -79 1 -32 -1 -60 -4 -63 -3 -3 -1 -16
4 -29 6 -14 6 -26 0 -29 -5 -3 -7 -12 -4 -19 9 -22 9 -316 1 -316 -5 0 -6 -4
-3 -9 5 -7 8 -147 6 -256 -1 -19 -1 -129 -1 -150 1 -68 1 -154 1 -170 -1 -21
-1 -133 -1 -150 0 -5 2 -58 3 -118 2 -59 -1 -107 -5 -107 -5 0 -6 -4 -2 -9 4
-8 6 -62 4 -141 0 -8 0 -69 0 -135 0 -66 1 -129 0 -140 0 -11 1 -46 1 -79 1
-32 -1 -60 -4 -63 -3 -3 -1 -16 4 -29 6 -14 6 -26 0 -29 -5 -3 -7 -12 -4 -19
9 -22 9 -316 1 -316 -5 0 -6 -4 -3 -9 5 -7 8 -147 6 -256 -1 -19 -1 -129 -1
-150 1 -68 1 -154 1 -170 -1 -11 0 -46 0 -79 1 -32 -1 -60 -4 -63 -3 -3 -1
-16 4 -29 6 -14 6 -26 -1 -29 -5 -4 -7 -10 -4 -15 4 -7 6 -134 4 -265 0 -11 1
-46 1 -79 1 -32 -1 -60 -4 -63 -3 -3 -1 -16 4 -29 6 -14 6 -26 -1 -29 -5 -4
-7 -11 -3 -16 3 -6 5 -40 4 -77 -2 -82 -2 -63 -1 -207 0 -66 1 -129 0 -140 0
-11 1 -46 1 -79 1 -32 -1 -60 -4 -63 -3 -3 -1 -16 4 -29 6 -14 6 -26 -1 -29
-5 -4 -7 -10 -4 -15 4 -7 6 -134 4 -265 0 -27 0 -137 0 -152 2 -102 3 -150 1
-158 -1 -5 -2 -21 -1 -34 1 -18 6 -22 20 -18 10 2 26 0 35 -5 9 -5 16 -5 16
-1 0 5 15 7 33 6 39 -2 76 -3 100 -3 9 0 28 0 42 0 14 0 32 0 40 0 8 1 44 1
80 1 36 0 72 0 80 0 8 0 30 -1 49 -2 19 0 39 2 44 5 5 3 8 563 8 1349 l-1
1343 -47 82 c-27 45 -48 84 -48 87 0 3 -8 18 -18 33 -24 35 -112 181 -112 186
0 2 -52 93 -115 201 -63 109 -115 199 -115 201 0 2 -17 32 -39 67 l-39 64 102
33 c55 19 103 35 106 35 31 9 306 131 320 143 3 2 5 1158 6 2568 l0 2565 -75
35 c-64 30 -143 63 -246 104 -48 19 -90 35 -95 36 -3 0 -29 8 -59 17 -69 22
-74 21 -68 -3z"/>
<path d="M6745 8968 c-3 -7 -4 -1098 -3 -2425 l3 -2412 50 32 c44 28 161 113
175 127 3 3 25 21 50 41 69 57 177 157 235 218 l30 32 1 1975 1 1974 -101 98
c-56 53 -123 115 -151 137 -27 22 -58 48 -69 57 -11 10 -38 30 -60 45 -23 15
-43 30 -46 33 -3 3 -29 22 -58 43 -36 26 -54 33 -57 25z"/>
<path d="M3738 8662 l-116 -3 -4 -65 c-1 -36 -1 -67 2 -69 3 -2 3 -110 0 -240
-3 -130 -3 -238 0 -240 3 -2 3 -110 0 -240 -3 -130 -3 -238 0 -240 3 -2 3
-110 0 -240 -3 -130 -3 -238 0 -240 3 -2 3 -38 0 -80 -3 -42 -3 -78 0 -80 3
-2 3 -110 0 -240 -3 -130 -3 -238 0 -240 3 -2 3 -110 0 -240 -3 -130 -3 -238
0 -240 3 -2 3 -110 0 -240 -3 -130 -3 -238 0 -240 3 -2 3 -110 0 -240 -3 -130
-3 -238 0 -240 3 -2 3 -110 0 -240 -3 -130 -3 -238 0 -240 3 -2 3 -110 0 -240
-3 -130 -3 -238 0 -240 3 -2 3 -110 0 -240 -3 -130 -3 -238 -2 -240 2 -2 3
-71 3 -153 l-2 -150 46 -93 c25 -52 45 -99 45 -104 0 -6 6 -17 13 -24 6 -6 12
-15 13 -19 0 -4 34 -77 76 -162 42 -85 108 -222 148 -305 171 -355 200 -415
203 -415 2 0 3 1467 3 3259 l0 3259 -33 4 c-18 2 -37 2 -42 -1 -5 -4 -60 -4
-122 -1 -63 3 -166 4 -231 2z"/>
<path d="M7520 8168 c0 -79 0 -82 -1 -165 0 -10 1 -35 3 -56 2 -21 0 -41 -4
-43 -4 -3 -4 -15 1 -27 5 -12 5 -31 1 -42 -4 -11 -5 -24 -2 -29 3 -5 4 -50 3
-100 -1 -50 -2 -100 -1 -111 1 -11 1 -27 1 -35 -1 -50 0 -171 2 -208 1 -23 -2
-42 -6 -42 -5 0 -5 -5 -2 -10 4 -6 6 -43 6 -83 -1 -40 -2 -80 -1 -89 0 -10 0
-29 0 -43 0 -14 0 -32 0 -40 0 -8 0 -27 -1 -42 0 -16 1 -37 1 -48 1 -11 1 -27
1 -35 -1 -50 0 -171 2 -208 1 -23 -2 -42 -6 -42 -5 0 -5 -5 -2 -10 4 -6 6 -43
6 -83 -1 -40 -2 -80 -1 -89 0 -16 -1 -29 -1 -85 0 -10 1 -35 3 -56 2 -21 0
-41 -4 -43 -4 -3 -4 -15 1 -27 5 -12 5 -31 1 -42 -4 -11 -5 -24 -2 -29 3 -5 4
-50 3 -100 -1 -50 -2 -100 -1 -111 1 -11 1 -27 1 -35 -1 -50 0 -171 2 -208 1
-23 -2 -42 -6 -42 -5 0 -5 -5 -2 -10 4 -6 6 -43 6 -83 -1 -40 -2 -80 -1 -89 0
-16 -1 -29 -1 -85 0 -10 1 -35 3 -56 2 -21 0 -41 -4 -43 -4 -3 -4 -15 1 -27 5
-12 5 -31 1 -42 -4 -11 -5 -24 -2 -29 6 -11 6 -186 -1 -192 -3 -3 -2 -18 3
-33 4 -15 3 -35 -2 -44 -5 -10 -6 -23 -2 -29 5 -7 7 -25 6 -41 -2 -19 1 -26 9
-22 14 9 139 201 139 214 0 5 6 16 14 24 20 19 118 218 161 324 20 48 40 97
45 108 5 11 25 70 44 131 47 153 80 301 111 504 25 170 25 588 -1 735 -11 65
-13 80 -19 119 -8 54 -13 81 -15 81 -1 0 -3 9 -4 20 -12 84 -79 309 -133 450
-45 119 -173 379 -223 454 -22 33 -40 65 -40 71 0 5 -3 10 -7 10 -5 0 -21 23
-38 50 -16 27 -34 50 -38 50 -4 0 -8 -28 -7 -62z"/>
<path d="M5183 7878 c-2 -5 -2 -8 0 -8 3 0 1 -16 -3 -35 -4 -19 -5 -37 -1 -39
3 -2 4 -39 1 -81 -3 -42 -3 -78 0 -80 3 -2 3 -38 0 -80 -3 -42 -3 -78 0 -80 3
-2 3 -38 0 -80 -3 -42 -3 -78 0 -80 3 -2 3 -38 0 -80 -3 -42 -3 -78 0 -80 3
-2 3 -38 0 -80 -3 -42 -3 -78 0 -80 3 -2 3 -38 0 -80 -3 -42 -3 -78 0 -80 3
-2 3 -38 0 -80 -3 -42 -3 -78 0 -80 3 -2 3 -38 0 -80 -3 -42 -3 -78 0 -80 3
-2 3 -38 0 -80 -3 -42 -3 -78 0 -80 3 -2 3 -38 0 -80 -3 -42 -3 -78 0 -80 3
-2 3 -38 0 -80 -3 -42 -3 -78 0 -80 3 -2 3 -38 0 -80 -3 -42 -3 -78 0 -80 3
-2 3 -38 0 -80 -3 -42 -3 -78 0 -80 3 -2 3 -38 0 -80 -3 -42 -3 -78 0 -80 3
-2 3 -38 0 -80 -3 -42 -3 -78 0 -80 3 -2 3 -38 0 -80 -3 -42 -3 -78 0 -80 3
-2 3 -38 0 -80 -3 -42 -3 -78 0 -80 3 -2 3 -38 0 -80 -3 -42 -3 -78 0 -80 3
-2 3 -38 0 -80 -3 -42 -3 -78 0 -80 3 -2 3 -38 0 -80 -3 -42 -4 -78 -2 -79 1
-2 2 -998 2 -2214 0 -1642 3 -2213 11 -2218 16 -10 89 -11 89 -1 0 5 5 5 11 2
6 -4 54 -7 107 -6 53 1 105 1 115 1 41 0 55 0 101 0 27 0 51 -2 53 -4 2 -2 16
-1 31 3 l27 7 1 3857 1 3857 -31 0 c-383 4 -509 4 -513 -2z"/>
<path d="M6740 1303 c0 -628 4 -1144 8 -1147 4 -2 14 -1 22 4 7 4 23 5 34 1
12 -4 32 -5 46 -1 14 3 44 3 68 0 23 -4 42 -4 42 0 0 4 15 4 33 1 17 -4 47 -4
65 0 17 4 32 4 32 0 0 -6 112 -6 171 0 l26 3 -1 671 -1 670 -35 60 c-19 33
-37 65 -39 70 -2 6 -14 26 -26 45 -12 19 -33 55 -47 80 -14 25 -49 86 -78 135
-29 50 -66 115 -82 145 -17 30 -39 67 -49 82 -11 14 -19 29 -19 32 0 3 -13 27
-29 53 -56 92 -82 138 -88 156 -3 9 -9 17 -14 17 -5 0 -9 6 -9 13 0 6 -7 21
-15 31 -13 18 -15 -116 -15 -1121z"/>
<path d="M7522 1053 c-2 -20 -5 -40 -8 -44 -2 -4 0 -10 6 -14 7 -4 7 -12 0
-24 -5 -10 -7 -21 -4 -24 9 -9 10 -78 2 -83 -4 -3 -4 -15 1 -27 5 -12 5 -31 1
-42 -4 -11 -5 -24 -2 -29 3 -5 4 -50 3 -100 -1 -50 -2 -100 -1 -111 1 -11 1
-27 1 -35 -3 -100 -1 -171 3 -179 4 -5 2 -12 -3 -16 -6 -3 -7 -15 -2 -28 5
-12 5 -34 0 -49 -4 -16 -4 -28 1 -28 5 0 7 -11 4 -24 -6 -33 6 -38 84 -37 37
1 78 1 92 1 14 -1 31 -1 38 -1 13 1 30 1 67 1 14 0 31 0 38 0 6 0 53 0 103 -1
51 -1 97 1 103 5 6 4 -2 26 -24 61 -19 30 -35 56 -35 58 0 3 -36 66 -80 141
-44 76 -80 141 -80 146 0 6 -4 10 -10 10 -5 0 -10 4 -10 9 0 5 -20 44 -45 85
-25 42 -45 78 -45 81 0 2 -17 32 -38 67 -79 130 -126 213 -124 221 1 4 -2 7
-8 7 -5 0 -10 6 -10 14 0 32 -16 22 -18 -11z"/>
</g>
</svg>
